HIERARCHY
ROOT Hips
{
	OFFSET 0.000000 0.000000 0.000000
	CHANNELS 6 Xposition Yposition Zposition Zrotation Yrotation Xrotation 
	JOINT LHipJoint
	{
		OFFSET 0.000000 0.000000 0.000000
		CHANNELS 3 Zrotation Yrotation Xrotation
		JOINT LeftUpLeg
		{
			OFFSET 1.363060 -1.794630 0.839290
			CHANNELS 3 Zrotation Yrotation Xrotation
			JOINT LeftLeg
			{
				OFFSET 2.448110 -6.726130 0.000000
				CHANNELS 3 Zrotation Yrotation Xrotation
				JOINT LeftFoot
				{
					OFFSET 2.562200 -7.039590 0.000000
					CHANNELS 3 Zrotation Yrotation Xrotation
					JOINT LeftToeBase
					{
						OFFSET 0.157640 -0.433110 2.322550
						CHANNELS 3 Zrotation Yrotation Xrotation
						End Site
						{
							OFFSET 0.000000 0.000000 0.000000
						}
					}
				}
			}
		}
	}
	JOINT RHipJoint
	{
		OFFSET 0.000000 0.000000 0.000000
		CHANNELS 3 Zrotation Yrotation Xrotation
		JOINT RightUpLeg
		{
			OFFSET -1.305520 -1.794630 0.839290
			CHANNELS 3 Zrotation Yrotation Xrotation
			JOINT RightLeg
			{
				OFFSET -2.542530 -6.985550 0.000000
				CHANNELS 3 Zrotation Yrotation Xrotation
				JOINT RightFoot
				{
					OFFSET -2.568260 -7.056230 0.000000
					CHANNELS 3 Zrotation Yrotation Xrotation
					JOINT RightToeBase
					{
						OFFSET -0.164730 -0.452590 2.363150
						CHANNELS 3 Zrotation Yrotation Xrotation
						End Site
						{
							OFFSET 0.000000 0.000000 0.000000
						}
					}
				}
			}
		}
	}
}
MOTION
Frames: 22
Frame Time: 0.008333
-1.040679 16.802310 -0.580938 -175.129469 71.041087 -176.216301 -11.084045 4.683498 -0.584479 -8.871961 9.156197 6.784544 -0.589513 2.975237 37.469449 0.771767 3.513941 3.828135 0.541699 -0.000000 -53.789699 9.580328 -0.308031 -0.211383 5.452017 -10.219565 -24.827966 1.974834 -1.191460 21.138013 -0.741075 -3.603950 0.348371 -0.860800 -0.000000 -58.431300
-0.850735 16.786738 -0.617923 -174.527591 69.762259 -175.882153 -11.276754 4.743003 -0.730752 -7.672572 10.453566 5.680775 -0.319783 3.089134 40.050419 1.012429 5.295655 4.824957 0.892200 0.000000 -52.260100 9.647627 -0.423046 -0.422358 5.484327 -11.424423 -24.563107 1.888669 -1.327664 22.324051 -0.724203 -3.659054 1.380582 -0.924801 0.000000 -56.534500
-0.663871 16.770386 -0.655555 -173.941414 68.483654 -175.540242 -11.462447 4.766491 -0.888399 -6.496913 11.785437 4.460870 -0.067119 3.182452 42.647053 1.304218 7.535585 5.466118 1.364301 -0.000000 -48.528599 9.697470 -0.532051 -0.615135 5.559592 -12.594925 -24.299136 1.813784 -1.436109 23.444661 -0.741751 -3.863164 2.053678 -0.991300 -0.000000 -54.270900
-0.480194 16.753457 -0.693820 -173.383472 67.220900 -175.193634 -11.636146 4.754299 -1.055606 -5.372968 13.131614 3.140005 0.152881 3.259031 45.199454 1.631452 10.107378 5.616093 1.900700 0.000000 -42.506900 9.729074 -0.634787 -0.780950 5.673370 -13.666705 -24.032488 1.750354 -1.518372 24.500714 -0.792414 -4.228647 2.335178 -1.064600 -0.000000 -51.838100
-0.299653 16.736292 -0.732728 -172.871488 65.984147 -174.851107 -11.792717 4.710257 -1.228604 -4.330819 14.467740 1.732389 0.328846 3.324419 47.647433 1.973349 12.828544 5.166640 2.394700 -0.000001 -34.404000 9.743683 -0.731119 -0.914477 5.817328 -14.593660 -23.761357 1.697053 -1.577596 25.496841 -0.873908 -4.751131 2.230626 -1.141300 0.000000 -49.440100
-0.122232 16.719299 -0.772319 -172.428231 64.777042 -174.528417 -11.928114 4.639435 -1.398899 -3.405780 15.754053 0.256548 0.459923 3.382050 49.917841 2.313739 15.526196 4.200845 2.751700 -0.000000 -25.843300 9.744483 -0.820088 -1.014953 5.977773 -15.351912 -23.484080 1.651530 -1.617718 26.437156 -0.983388 -5.410924 1.780431 -1.211699 -0.000000 -47.264000
0.052189 16.703031 -0.812593 -172.078913 63.597460 -174.244473 -12.039385 4.547773 -1.555329 -2.638042 16.942568 -1.275286 0.551941 3.433382 51.964188 2.639331 18.054428 2.919812 2.927501 -0.000000 -18.805100 9.736528 -0.900347 -1.084727 6.135633 -15.940156 -23.200643 1.610968 -1.642941 27.324416 -1.117381 -6.177525 1.051548 -1.263400 -0.000000 -45.459900
0.223613 16.687996 -0.853649 -171.842758 62.437648 -174.015816 -12.123865 4.442550 -1.691929 -2.058337 18.007228 -2.866623 0.608011 3.480823 53.793487 2.932988 20.272832 1.389578 2.879000 0.000000 -13.631700 9.725880 -0.971436 -1.126799 6.270950 -16.374557 -22.912218 1.572630 -1.657134 28.158492 -1.271482 -7.015872 0.127415 -1.286200 -0.000000 -44.127400
0.392024 16.674721 -0.895707 -171.724734 61.288653 -173.849185 -12.180402 4.330386 -1.806515 -1.683106 18.940149 -4.525676 0.629841 3.526004 55.424808 3.180499 22.076787 -0.384887 2.573800 0.000000 -9.872900 9.717810 -1.034136 -1.145050 6.368562 -16.682106 -22.616442 1.534300 -1.663238 28.932441 -1.440227 -7.892487 -0.900886 -1.275800 0.000001 -43.320600
0.557248 16.663599 -0.938955 -171.721927 60.141723 -173.747593 -12.208802 4.215821 -1.898872 -1.519912 19.739098 -6.253749 0.619455 3.568939 56.870470 3.374881 23.417261 -2.380996 2.014900 -0.000000 -7.041600 9.716921 -1.089414 -1.145278 6.414952 -16.897416 -22.306880 1.494436 -1.663594 29.635812 -1.616810 -8.775334 -1.946819 -1.234600 -0.000000 -43.039200
0.719067 16.654977 -0.983690 -171.821068 58.990194 -173.707004 -12.210429 4.101363 -1.970218 -1.565358 20.405277 -8.043701 0.578300 3.608679 58.135065 3.515403 24.291586 -4.566903 1.236201 0.000000 -4.619801 9.725840 -1.138791 -1.134492 6.402257 -17.055551 -21.971111 1.452365 -1.659602 30.252840 -1.793871 -9.637605 -2.934743 -1.171300 0.000000 -43.245800
0.877153 16.649119 -1.030157 -172.003511 57.830309 -173.720358 -12.188241 3.987635 -2.020926 -1.807942 20.935929 -9.878159 0.510571 3.643131 59.211774 3.607386 24.746985 -6.830665 0.325800 -0.000001 -2.729900 9.745344 -1.183764 -1.120277 6.326305 -17.187315 -21.591362 1.408201 -1.651740 30.764215 -1.964245 -10.457528 -3.806882 -1.097900 0.000000 -43.860100
1.031181 16.646103 -1.078547 -172.247982 56.661116 -173.779353 -12.145705 3.874043 -2.053235 -2.226800 21.334024 -11.733389 0.420513 3.670524 60.093546 3.658837 24.852878 -9.078195 -0.628100 0.000000 -1.366100 9.774704 -1.225863 -1.109801 6.186846 -17.316186 -21.147298 1.362782 -1.639959 31.151587 -2.121826 -11.218282 -4.527771 -1.026700 -0.000001 -44.773500
1.180810 16.645885 -1.129063 -172.530965 55.485306 -173.873618 -12.086329 3.759249 -2.071191 -2.793490 21.610007 -13.584016 0.310563 3.689835 60.777241 3.680504 24.691391 -11.280087 -1.571300 0.000000 -0.059200 9.811840 -1.266736 -1.108346 5.987865 -17.454776 -20.617975 1.317249 -1.623619 31.398263 -2.262253 -11.908861 -5.081668 -0.968200 0.000000 -45.885400
1.325829 16.648289 -1.181749 -172.830854 54.308610 -173.992851 -12.014368 3.641047 -2.078321 -3.476183 21.776981 -15.405307 0.187742 3.699833 61.257636 3.684842 24.365101 -13.333148 177.566400 0.000000 -0.871400 9.853743 -1.307676 -1.119433 5.736622 -17.604633 -19.985542 1.272944 -1.601942 31.492373 -2.383283 -12.523347 -5.473474 -0.928500 0.000000 -47.080300
1.466149 16.653085 -1.236681 -173.128445 53.139072 -174.126516 -11.933321 3.517511 -2.079126 -4.241716 21.856303 -17.178952 0.056765 3.700272 61.537622 3.685074 23.973205 -15.208923 176.803999 0.000000 -1.597700 9.896914 -1.350090 -1.143558 5.444426 -17.757249 -19.237065 1.230833 -1.573957 31.427227 -2.484741 -13.061675 -5.720244 -0.910000 0.000000 -48.274300
1.601822 16.659885 -1.293884 -173.408072 51.985765 -174.264368 -11.845934 3.387076 -2.078042 -5.060329 21.874763 -18.894483 -0.077744 3.691262 61.624100 3.693369 23.606125 -16.888905 176.141200 0.000000 -2.153099 9.938014 -1.395217 -1.178832 5.124379 -17.898055 -18.368190 1.191597 -1.539015 31.203089 -2.567747 -13.526540 -5.846191 -0.911900 -0.000000 -49.429000
1.733111 16.668336 -1.353334 -173.658991 50.857837 -174.396921 -11.754106 3.249153 -2.078373 -5.907355 21.861154 -20.551444 -0.212438 3.673362 61.527959 3.719276 23.333661 -18.373861 175.561000 0.000000 -2.571500 9.973710 -1.444211 -1.221166 4.792286 -18.008921 -17.382598 1.155894 -1.496605 30.828061 -2.634596 -13.922275 -5.887170 -0.928900 0.000000 -50.439000
1.860452 16.677923 -1.415062 -173.877253 49.762705 -174.517974 -11.657752 3.104473 -2.082921 -6.768204 21.844763 -22.155835 -0.346653 3.647313 61.263458 3.768946 23.195086 -19.698582 175.031900 -0.000000 -3.041000 10.002525 -1.497880 -1.265686 4.460117 -18.077410 -16.294235 1.123512 -1.447128 30.315217 -2.687095 -14.253704 -5.861352 -0.958800 -0.000000 -51.401700
1.984450 16.688377 -1.479068 -174.066934 48.705974 -174.625343 -11.555828 2.955433 -2.092219 -7.638999 21.849660 -23.719467 -0.480541 3.613663 60.841043 3.843030 23.195109 -20.883128 174.534900 0.000000 -3.592600 10.023764 -1.556219 -1.307857 4.136033 -18.098872 -15.125197 1.095438 -1.391507 29.689821 -2.725855 -14.514222 -5.806065 -0.992100 0.000000 -52.180900
2.105510 16.699057 -1.545602 -174.218299 47.688946 -174.705636 -11.448397 2.804354 -2.105175 -8.509705 21.895662 -25.260935 -0.616135 3.573972 60.278758 3.937482 23.302550 -21.967063 174.052800 0.000000 -4.338700 10.035370 -1.621273 -1.341602 3.840018 -18.063536 -13.893181 1.070584 -1.329858 28.959418 -2.754191 -14.722960 -5.713499 -1.033001 0.000000 -52.999201
2.224445 16.709822 -1.614623 -174.353555 46.711947 -174.770393 -11.331504 2.656844 -2.119659 -9.400309 21.993152 -26.789518 -0.755244 3.527832 59.577636 4.043445 23.462885 -22.949655 173.594900 -0.000000 -5.219800 10.041311 -1.691302 -1.366541 3.559907 -17.998415 -12.632266 1.050341 -1.265001 28.161726 -2.768221 -14.854430 -5.602482 -1.074000 0.000000 -53.796801
